<?xml version="1.0" standalone="no"?>
<!DOCTYPE svg PUBLIC "-//W3C//DTD SVG 20010904//EN"
 "http://www.w3.org/TR/2001/REC-SVG-20010904/DTD/svg10.dtd">
<svg version="1.0" xmlns="http://www.w3.org/2000/svg"
 width="2500.000000pt" height="2500.000000pt" viewBox="0 0 2500.000000 2500.000000"
 preserveAspectRatio="xMidYMid meet">
<metadata>
Created by potrace 1.14, written by Peter Selinger 2001-2017
</metadata>
<g transform="translate(0.000000,2500.000000) scale(0.100000,-0.100000)"
fill="#000000" stroke="none">
<path d="M11330 19379 c-1522 -93 -2938 -636 -4120 -1579 -219 -175 -385 -324
-596 -535 -179 -179 -449 -483 -449 -506 0 -6 74 -34 165 -63 232 -73 388
-136 585 -235 173 -88 402 -233 530 -336 276 -221 512 -497 693 -805 24 -41
40 -65 37 -52 -4 13 -126 392 -271 843 -145 450 -264 823 -264 829 0 7 340 10
1038 10 l1037 0 974 -3148 c869 -2808 1274 -4092 1291 -4092 3 0 105 323 227
718 170 548 1800 5800 1989 6410 l35 112 1040 0 c986 0 1040 -1 1035 -17 -57
-183 -858 -2794 -861 -2808 -3 -11 4 0 15 25 12 25 47 101 78 170 115 252 300
562 476 798 303 403 673 751 1092 1025 177 116 475 287 498 287 9 0 188 -257
276 -395 233 -365 513 -914 648 -1273 l20 -52 -61 -42 c-469 -316 -856 -767
-1131 -1317 -259 -516 -370 -981 -383 -1596 -8 -371 17 -648 87 -956 148 -656
529 -1302 1015 -1720 90 -77 275 -219 286 -219 4 0 16 21 27 48 11 26 50 115
87 197 86 195 210 527 275 735 493 1588 448 3268 -129 4773 -23 60 -39 112
-36 117 10 15 204 116 320 165 253 108 534 181 795 206 153 14 498 6 690 -16
838 -99 1433 -462 1828 -1115 68 -113 172 -321 218 -437 l29 -73 1076 0 1076
0 -19 108 c-24 140 -98 437 -144 582 -110 351 -291 728 -488 1020 -460 681
-1144 1180 -2016 1471 -526 175 -1048 266 -1720 300 -830 41 -1745 -110 -2430
-401 -80 -34 -152 -64 -161 -66 -11 -4 -44 28 -106 103 -344 411 -744 815
-1110 1120 -1113 928 -2501 1515 -3918 1658 -347 34 -842 45 -1175 24z"/>
<path d="M4195 16923 c-913 -76 -1697 -342 -2381 -805 -669 -453 -1042 -999
-1188 -1738 -80 -404 -96 -915 -37 -1181 77 -345 267 -659 656 -1082 201 -219
337 -322 610 -462 422 -216 1161 -458 1910 -625 305 -68 736 -152 743 -145 2
2 -3 48 -12 102 -45 294 -66 614 -66 1032 0 294 11 571 31 770 5 57 7 106 5
109 -3 3 -63 13 -133 23 -951 136 -1528 439 -1638 860 -28 104 -17 296 23 419
94 286 312 511 658 681 381 186 847 256 1304 195 139 -19 356 -57 369 -65 6
-4 -14 -66 -55 -166 -243 -597 -402 -1175 -488 -1768 -26 -175 -31 -162 72
-175 324 -41 433 -54 642 -77 694 -75 920 -107 1265 -180 567 -120 982 -265
1283 -449 123 -75 177 -115 297 -223 460 -414 741 -951 835 -1598 57 -394 47
-881 -26 -1250 -95 -482 -342 -993 -690 -1430 -106 -132 -382 -411 -478 -482
-160 -118 -516 -282 -883 -407 -68 -22 -123 -44 -123 -48 0 -14 100 -126 180
-202 269 -252 856 -660 1305 -907 l72 -39 3517 0 3517 0 82 47 c553 313 1273
890 1710 1370 26 29 52 53 56 53 5 0 34 29 65 64 52 60 70 96 46 96 -29 0
-197 121 -400 289 -153 127 -480 454 -616 616 -754 899 -1184 1976 -1265 3170
-22 335 -3 868 47 1250 16 123 67 436 80 490 4 17 4 28 1 25 -3 -3 -471 -1472
-1041 -3266 -569 -1793 -1040 -3273 -1045 -3287 l-11 -27 -1019 0 c-962 0
-1021 1 -1029 18 -5 9 -553 1723 -1218 3809 -665 2085 -1210 3790 -1212 3788
-2 -1 4 -58 12 -126 9 -68 18 -168 22 -222 l7 -97 -1013 2 -1013 3 -23 105
c-49 214 -122 391 -235 561 -85 127 -256 297 -371 367 -177 109 -448 217 -720
286 l-126 33 43 97 c252 560 566 1062 1007 1613 11 14 -11 21 -197 62 -254 57
-565 99 -889 120 -143 10 -731 13 -831 4z"/>
<path d="M20360 11315 l0 -945 1160 0 c852 0 1160 -3 1160 -11 0 -44 -59 -286
-99 -407 -160 -485 -446 -857 -881 -1147 -456 -304 -1067 -474 -1705 -475
-545 0 -1098 159 -1559 448 -54 34 -100 61 -101 60 -1 -2 -51 -95 -112 -208
-254 -472 -533 -892 -828 -1245 -55 -67 -106 -128 -113 -137 -12 -14 -6 -21
45 -56 242 -163 591 -340 918 -464 769 -292 1686 -382 2485 -243 744 130 1424
467 2032 1009 53 47 100 86 103 86 3 0 5 -229 5 -510 l0 -510 880 0 880 0 0
2850 0 2850 -2135 0 -2135 0 0 -945z"/>
<path d="M4530 10881 c0 -5 11 -72 25 -148 101 -545 263 -1078 492 -1618 71
-166 325 -688 355 -727 12 -16 28 -15 243 21 525 89 643 146 858 417 199 253
300 510 300 769 0 109 -3 127 -31 203 -148 399 -560 714 -1160 886 -210 61
-319 82 -882 177 -196 32 -200 33 -200 20z"/>
<path d="M373 9813 c21 -507 153 -999 397 -1483 264 -522 620 -936 1042 -1212
633 -415 1436 -668 2313 -729 191 -13 724 -7 895 11 538 55 990 148 1503 311
l157 50 -93 89 c-375 358 -826 926 -1126 1418 -35 56 -64 102 -65 102 -1 0
-80 -13 -176 -29 -272 -46 -378 -54 -619 -48 -356 9 -676 72 -981 194 -694
276 -1085 756 -1126 1383 l-7 100 -1060 0 -1060 0 6 -157z"/>
</g>
</svg>
